<mxfile host="app.diagrams.net" modified="2021-03-25T06:36:37.061Z" agent="5.0 (Windows NT 10.0; Win64; x64) AppleWebKit/537.36 (KHTML, like Gecko) Chrome/89.0.4389.82 Safari/537.36" etag="YyG6R9RK8Z9sGWEpXWnR" version="14.4.8" type="github">
  <diagram id="C5RBs43oDa-KdzZeNtuy" name="Page-1">
    <mxGraphModel dx="1182" dy="764" grid="0" gridSize="10" guides="1" tooltips="1" connect="1" arrows="1" fold="1" page="1" pageScale="1" pageWidth="827" pageHeight="1169" math="0" shadow="0">
      <root>
        <mxCell id="WIyWlLk6GJQsqaUBKTNV-0" />
        <mxCell id="WIyWlLk6GJQsqaUBKTNV-1" parent="WIyWlLk6GJQsqaUBKTNV-0" />
        <mxCell id="P8jeqRXpjA01nZ9afECX-0" value="PhoneBook" style="swimlane;fontStyle=2;align=center;verticalAlign=top;childLayout=stackLayout;horizontal=1;startSize=26;horizontalStack=0;resizeParent=1;resizeLast=0;collapsible=1;marginBottom=0;rounded=0;shadow=0;strokeWidth=1;fontSize=14;" parent="WIyWlLk6GJQsqaUBKTNV-1" vertex="1">
          <mxGeometry x="354" y="258" width="390" height="296" as="geometry">
            <mxRectangle x="230" y="140" width="160" height="26" as="alternateBounds" />
          </mxGeometry>
        </mxCell>
        <mxCell id="P8jeqRXpjA01nZ9afECX-1" value="+v : Vector&lt;Person&gt;  //Person을 저장할 리스트     &#xa;&#xa;+errorStatus : int //에러 유무 /정상 = 0 / 에러 = 1 /" style="text;align=left;verticalAlign=top;spacingLeft=4;spacingRight=4;overflow=hidden;rotatable=0;points=[[0,0.5],[1,0.5]];portConstraint=eastwest;fontSize=14;" parent="P8jeqRXpjA01nZ9afECX-0" vertex="1">
          <mxGeometry y="26" width="390" height="66" as="geometry" />
        </mxCell>
        <mxCell id="P8jeqRXpjA01nZ9afECX-2" value="" style="line;html=1;strokeWidth=1;align=left;verticalAlign=middle;spacingTop=-1;spacingLeft=3;spacingRight=3;rotatable=0;labelPosition=right;points=[];portConstraint=eastwest;fontSize=14;" parent="P8jeqRXpjA01nZ9afECX-0" vertex="1">
          <mxGeometry y="92" width="390" height="20" as="geometry" />
        </mxCell>
        <mxCell id="f7E5iX_CI0--iNyVOqC2-0" value="+input(String name, String phone) : Person" style="text;strokeColor=none;fillColor=none;align=left;verticalAlign=top;spacingLeft=4;spacingRight=4;overflow=hidden;rotatable=0;points=[[0,0.5],[1,0.5]];portConstraint=eastwest;fontSize=14;" vertex="1" parent="P8jeqRXpjA01nZ9afECX-0">
          <mxGeometry y="112" width="390" height="26" as="geometry" />
        </mxCell>
        <mxCell id="f7E5iX_CI0--iNyVOqC2-1" value="+output(Person person) : String" style="text;strokeColor=none;fillColor=none;align=left;verticalAlign=top;spacingLeft=4;spacingRight=4;overflow=hidden;rotatable=0;points=[[0,0.5],[1,0.5]];portConstraint=eastwest;fontSize=14;" vertex="1" parent="P8jeqRXpjA01nZ9afECX-0">
          <mxGeometry y="138" width="390" height="26" as="geometry" />
        </mxCell>
        <mxCell id="P8jeqRXpjA01nZ9afECX-22" value="+add(Person person) : Person" style="text;strokeColor=none;fillColor=none;align=left;verticalAlign=top;spacingLeft=4;spacingRight=4;overflow=hidden;rotatable=0;points=[[0,0.5],[1,0.5]];portConstraint=eastwest;fontSize=14;" parent="P8jeqRXpjA01nZ9afECX-0" vertex="1">
          <mxGeometry y="164" width="390" height="26" as="geometry" />
        </mxCell>
        <mxCell id="P8jeqRXpjA01nZ9afECX-23" value="+search(Person person) : Person" style="text;strokeColor=none;fillColor=none;align=left;verticalAlign=top;spacingLeft=4;spacingRight=4;overflow=hidden;rotatable=0;points=[[0,0.5],[1,0.5]];portConstraint=eastwest;fontSize=14;" parent="P8jeqRXpjA01nZ9afECX-0" vertex="1">
          <mxGeometry y="190" width="390" height="24" as="geometry" />
        </mxCell>
        <mxCell id="P8jeqRXpjA01nZ9afECX-24" value="+sort( ) : void //아직 수정 전" style="text;strokeColor=none;fillColor=none;align=left;verticalAlign=top;spacingLeft=4;spacingRight=4;overflow=hidden;rotatable=0;points=[[0,0.5],[1,0.5]];portConstraint=eastwest;fontSize=14;" parent="P8jeqRXpjA01nZ9afECX-0" vertex="1">
          <mxGeometry y="214" width="390" height="26" as="geometry" />
        </mxCell>
        <mxCell id="P8jeqRXpjA01nZ9afECX-25" value="+modify(Person person): Person " style="text;strokeColor=none;fillColor=none;align=left;verticalAlign=top;spacingLeft=4;spacingRight=4;overflow=hidden;rotatable=0;points=[[0,0.5],[1,0.5]];portConstraint=eastwest;fontSize=14;" parent="P8jeqRXpjA01nZ9afECX-0" vertex="1">
          <mxGeometry y="240" width="390" height="26" as="geometry" />
        </mxCell>
        <mxCell id="P8jeqRXpjA01nZ9afECX-26" value="+delete(Person person): void" style="text;strokeColor=none;fillColor=none;align=left;verticalAlign=top;spacingLeft=4;spacingRight=4;overflow=hidden;rotatable=0;points=[[0,0.5],[1,0.5]];portConstraint=eastwest;fontSize=14;" parent="P8jeqRXpjA01nZ9afECX-0" vertex="1">
          <mxGeometry y="266" width="390" height="26" as="geometry" />
        </mxCell>
        <mxCell id="P8jeqRXpjA01nZ9afECX-10" value="Person" style="swimlane;fontStyle=2;align=center;verticalAlign=top;childLayout=stackLayout;horizontal=1;startSize=26;horizontalStack=0;resizeParent=1;resizeLast=0;collapsible=1;marginBottom=0;rounded=0;shadow=0;strokeWidth=1;fontSize=14;" parent="WIyWlLk6GJQsqaUBKTNV-1" vertex="1">
          <mxGeometry x="391" y="623" width="310" height="179" as="geometry">
            <mxRectangle x="230" y="140" width="160" height="26" as="alternateBounds" />
          </mxGeometry>
        </mxCell>
        <mxCell id="P8jeqRXpjA01nZ9afECX-11" value="-name: String" style="text;align=left;verticalAlign=top;spacingLeft=4;spacingRight=4;overflow=hidden;rotatable=0;points=[[0,0.5],[1,0.5]];portConstraint=eastwest;fontSize=14;" parent="P8jeqRXpjA01nZ9afECX-10" vertex="1">
          <mxGeometry y="26" width="310" height="26" as="geometry" />
        </mxCell>
        <mxCell id="P8jeqRXpjA01nZ9afECX-12" value="-phone: String" style="text;align=left;verticalAlign=top;spacingLeft=4;spacingRight=4;overflow=hidden;rotatable=0;points=[[0,0.5],[1,0.5]];portConstraint=eastwest;rounded=0;shadow=0;html=0;fontSize=14;" parent="P8jeqRXpjA01nZ9afECX-10" vertex="1">
          <mxGeometry y="52" width="310" height="26" as="geometry" />
        </mxCell>
        <mxCell id="P8jeqRXpjA01nZ9afECX-13" value="" style="line;html=1;strokeWidth=1;align=left;verticalAlign=middle;spacingTop=-1;spacingLeft=3;spacingRight=3;rotatable=0;labelPosition=right;points=[];portConstraint=eastwest;fontSize=14;" parent="P8jeqRXpjA01nZ9afECX-10" vertex="1">
          <mxGeometry y="78" width="310" height="8" as="geometry" />
        </mxCell>
        <mxCell id="AGnKkswIksJs2r1xKDmr-33" value="+ setPerson(String name, String phone) : void&lt;br style=&quot;font-size: 14px&quot;&gt;&lt;br style=&quot;font-size: 14px&quot;&gt;+ getName() : String&lt;br style=&quot;font-size: 14px&quot;&gt;&lt;br style=&quot;font-size: 14px&quot;&gt;+ getPhone() : String" style="text;html=1;align=left;verticalAlign=middle;resizable=0;points=[];autosize=1;fontSize=14;" parent="P8jeqRXpjA01nZ9afECX-10" vertex="1">
          <mxGeometry y="86" width="310" height="89" as="geometry" />
        </mxCell>
        <mxCell id="te0iCXtoX0ai0mT4FdgT-9" value="Display" style="swimlane;fontStyle=2;align=center;verticalAlign=top;childLayout=stackLayout;horizontal=1;startSize=26;horizontalStack=0;resizeParent=1;resizeParentMax=0;resizeLast=0;collapsible=1;marginBottom=0;fontSize=14;" parent="WIyWlLk6GJQsqaUBKTNV-1" vertex="1">
          <mxGeometry x="46" y="310" width="258" height="483" as="geometry" />
        </mxCell>
        <mxCell id="te0iCXtoX0ai0mT4FdgT-10" value="//PhoneBook 사용&#xa;+phoneBook : PhoneBook&#xa;&#xa;//화면 구성 요소&#xa;+frame: JFrame&#xa;+nameBox: JTextField&#xa;+phoneBox: JTextField&#xa;+textArea: JTextArea&#xa;+scroll: JScrollPane&#xa;&#xa;//버튼의 종류&#xa;+addButton : JButton&#xa;+searchButton : JButton&#xa;+sortButton : JButton&#xa;+mButton : JButton&#xa;+checkButton : JButton&#xa;+dButton : JButton&#xa;+exitButton : JButton&#xa;&#xa;//버튼 동작&#xa;+ listener : ActionListener" style="text;strokeColor=none;fillColor=none;align=left;verticalAlign=top;spacingLeft=4;spacingRight=4;overflow=hidden;rotatable=0;points=[[0,0.5],[1,0.5]];portConstraint=eastwest;spacing=2;spacingTop=1;fontSize=14;" parent="te0iCXtoX0ai0mT4FdgT-9" vertex="1">
          <mxGeometry y="26" width="258" height="375" as="geometry" />
        </mxCell>
        <mxCell id="te0iCXtoX0ai0mT4FdgT-11" value="" style="line;strokeWidth=1;fillColor=none;align=left;verticalAlign=middle;spacingTop=-1;spacingLeft=3;spacingRight=3;rotatable=0;labelPosition=right;points=[];portConstraint=eastwest;fontSize=14;" parent="te0iCXtoX0ai0mT4FdgT-9" vertex="1">
          <mxGeometry y="401" width="258" height="8" as="geometry" />
        </mxCell>
        <mxCell id="AGnKkswIksJs2r1xKDmr-1" value="+actionPerformed(ActionEvent e) : void&#xa;//액션리스너 동작 메서드 (버튼클릭)&#xa;" style="text;strokeColor=none;fillColor=none;align=left;verticalAlign=top;spacingLeft=4;spacingRight=4;overflow=hidden;rotatable=0;points=[[0,0.5],[1,0.5]];portConstraint=eastwest;fontSize=14;" parent="te0iCXtoX0ai0mT4FdgT-9" vertex="1">
          <mxGeometry y="409" width="258" height="74" as="geometry" />
        </mxCell>
        <mxCell id="f7E5iX_CI0--iNyVOqC2-10" value="JFrame" style="swimlane;fontStyle=1;align=center;verticalAlign=top;childLayout=stackLayout;horizontal=1;startSize=26;horizontalStack=0;resizeParent=1;resizeParentMax=0;resizeLast=0;collapsible=1;marginBottom=0;strokeWidth=1;fontSize=14;" vertex="1" parent="WIyWlLk6GJQsqaUBKTNV-1">
          <mxGeometry x="20" y="924" width="160" height="86" as="geometry" />
        </mxCell>
        <mxCell id="f7E5iX_CI0--iNyVOqC2-11" value=" " style="text;strokeColor=none;fillColor=none;align=left;verticalAlign=top;spacingLeft=4;spacingRight=4;overflow=hidden;rotatable=0;points=[[0,0.5],[1,0.5]];portConstraint=eastwest;" vertex="1" parent="f7E5iX_CI0--iNyVOqC2-10">
          <mxGeometry y="26" width="160" height="26" as="geometry" />
        </mxCell>
        <mxCell id="f7E5iX_CI0--iNyVOqC2-12" value="" style="line;strokeWidth=1;fillColor=none;align=left;verticalAlign=middle;spacingTop=-1;spacingLeft=3;spacingRight=3;rotatable=0;labelPosition=right;points=[];portConstraint=eastwest;" vertex="1" parent="f7E5iX_CI0--iNyVOqC2-10">
          <mxGeometry y="52" width="160" height="8" as="geometry" />
        </mxCell>
        <mxCell id="f7E5iX_CI0--iNyVOqC2-13" value=" " style="text;strokeColor=none;fillColor=none;align=left;verticalAlign=top;spacingLeft=4;spacingRight=4;overflow=hidden;rotatable=0;points=[[0,0.5],[1,0.5]];portConstraint=eastwest;" vertex="1" parent="f7E5iX_CI0--iNyVOqC2-10">
          <mxGeometry y="60" width="160" height="26" as="geometry" />
        </mxCell>
        <mxCell id="f7E5iX_CI0--iNyVOqC2-14" value="Main" style="swimlane;fontStyle=1;align=center;verticalAlign=top;childLayout=stackLayout;horizontal=1;startSize=26;horizontalStack=0;resizeParent=1;resizeParentMax=0;resizeLast=0;collapsible=1;marginBottom=0;strokeWidth=1;fontSize=14;" vertex="1" parent="WIyWlLk6GJQsqaUBKTNV-1">
          <mxGeometry x="68" y="107" width="160" height="89" as="geometry" />
        </mxCell>
        <mxCell id="f7E5iX_CI0--iNyVOqC2-15" value=" " style="text;strokeColor=none;fillColor=none;align=left;verticalAlign=top;spacingLeft=4;spacingRight=4;overflow=hidden;rotatable=0;points=[[0,0.5],[1,0.5]];portConstraint=eastwest;" vertex="1" parent="f7E5iX_CI0--iNyVOqC2-14">
          <mxGeometry y="26" width="160" height="29" as="geometry" />
        </mxCell>
        <mxCell id="f7E5iX_CI0--iNyVOqC2-16" value="" style="line;strokeWidth=1;fillColor=none;align=left;verticalAlign=middle;spacingTop=-1;spacingLeft=3;spacingRight=3;rotatable=0;labelPosition=right;points=[];portConstraint=eastwest;" vertex="1" parent="f7E5iX_CI0--iNyVOqC2-14">
          <mxGeometry y="55" width="160" height="8" as="geometry" />
        </mxCell>
        <mxCell id="f7E5iX_CI0--iNyVOqC2-17" value="+main(String[] args) : void" style="text;strokeColor=none;fillColor=none;align=left;verticalAlign=top;spacingLeft=4;spacingRight=4;overflow=hidden;rotatable=0;points=[[0,0.5],[1,0.5]];portConstraint=eastwest;" vertex="1" parent="f7E5iX_CI0--iNyVOqC2-14">
          <mxGeometry y="63" width="160" height="26" as="geometry" />
        </mxCell>
        <mxCell id="f7E5iX_CI0--iNyVOqC2-18" value="ActionListner" style="swimlane;fontStyle=1;align=center;verticalAlign=top;childLayout=stackLayout;horizontal=1;startSize=26;horizontalStack=0;resizeParent=1;resizeParentMax=0;resizeLast=0;collapsible=1;marginBottom=0;strokeWidth=1;fontSize=14;" vertex="1" parent="WIyWlLk6GJQsqaUBKTNV-1">
          <mxGeometry x="214" y="924" width="160" height="86" as="geometry" />
        </mxCell>
        <mxCell id="f7E5iX_CI0--iNyVOqC2-19" value=" " style="text;strokeColor=none;fillColor=none;align=left;verticalAlign=top;spacingLeft=4;spacingRight=4;overflow=hidden;rotatable=0;points=[[0,0.5],[1,0.5]];portConstraint=eastwest;" vertex="1" parent="f7E5iX_CI0--iNyVOqC2-18">
          <mxGeometry y="26" width="160" height="26" as="geometry" />
        </mxCell>
        <mxCell id="f7E5iX_CI0--iNyVOqC2-20" value="" style="line;strokeWidth=1;fillColor=none;align=left;verticalAlign=middle;spacingTop=-1;spacingLeft=3;spacingRight=3;rotatable=0;labelPosition=right;points=[];portConstraint=eastwest;" vertex="1" parent="f7E5iX_CI0--iNyVOqC2-18">
          <mxGeometry y="52" width="160" height="8" as="geometry" />
        </mxCell>
        <mxCell id="f7E5iX_CI0--iNyVOqC2-21" value=" " style="text;strokeColor=none;fillColor=none;align=left;verticalAlign=top;spacingLeft=4;spacingRight=4;overflow=hidden;rotatable=0;points=[[0,0.5],[1,0.5]];portConstraint=eastwest;" vertex="1" parent="f7E5iX_CI0--iNyVOqC2-18">
          <mxGeometry y="60" width="160" height="26" as="geometry" />
        </mxCell>
      </root>
    </mxGraphModel>
  </diagram>
</mxfile>
